<?xml version="1.0" encoding="utf-8"?>
<!-- Generator: Adobe Illustrator 26.0.1, SVG Export Plug-In . SVG Version: 6.00 Build 0)  -->
<svg version="1.1" id="Layer_1" xmlns="http://www.w3.org/2000/svg" xmlns:xlink="http://www.w3.org/1999/xlink" x="0px" y="0px"
	 viewBox="0 0 1000 800" style="enable-background:new 0 0 1000 800;" xml:space="preserve" fill="white">
<style type="text/css">
	.st0{fill:#f2f0f0;}
</style>
<g>
	<g>
		<path d="M-1583.97,396.21V249.08h-315.68c-48.37,0-92.65,22.86-118.47,61.16c-16.56,24.5-24.82,52.91-23.87,82.01
			c1.07,32.18,13.6,63.36,35.4,87.8c24.63,27.71,60.65,44.28,99.64,45.98v292.31h-57.19v12.6h127.04v-12.6h-57.25V526.21h213.39
			v23.93h-191.66v117.4h204.26V513.61h-225.99v-117.4H-1583.97z M-1897.01,285.23c-30.67,0-58.39,12.41-78.48,32.5
			c-20.09,20.09-32.5,47.87-32.5,78.48h101.03v117.21c-35.4-1.7-68.02-16.75-90.26-41.76c-19.78-22.23-31.24-50.58-32.18-79.8
			c-0.88-26.45,6.61-52.28,21.67-74.57c23.56-34.83,63.93-55.61,108.08-55.61h303.08v23.56H-1897.01z"/>
	</g>
</g>
<g>
	<g>
		<g>
			<path d="M-438.96,359.66V236.69h-263.83c-40.43,0-77.43,19.11-99.01,51.11c-13.84,20.48-20.74,44.22-19.95,68.54
				c0.89,26.9,11.37,52.96,29.58,73.38c20.58,23.16,50.69,37.01,83.28,38.43v244.3h-47.8v10.53h106.17v-10.53h-47.85V468.31h178.34
				v20H-680.2v98.12h170.71V457.78h-188.87v-98.12H-438.96z M-700.57,266.91c-25.64,0-48.8,10.37-65.59,27.16
				c-16.79,16.79-27.16,40.01-27.16,65.59h84.43v97.96c-29.58-1.42-56.85-14-75.43-34.9c-16.53-18.58-26.11-42.27-26.9-66.69
				c-0.74-22.11,5.53-43.69,18.11-62.33c19.69-29.11,53.43-46.48,90.33-46.48h253.3v19.69H-700.57z"/>
		</g>
		<g>
			<path d="M-1019.64,759.99v18.22h-5.91c-0.89-2.74-1.74-4.95-2.56-6.64c-0.82-1.69-1.69-2.98-2.59-3.86
				c-0.91-0.88-1.96-1.51-3.17-1.87c-1.21-0.36-2.8-0.54-4.77-0.54h-17.68v32.82h12.43c1.77,0,3.16-0.29,4.16-0.87
				c1-0.58,1.84-1.56,2.5-2.93c0.66-1.37,1.3-3.48,1.9-6.34h5.67v25.46h-5.67c-0.6-2.73-1.25-4.8-1.93-6.18
				c-0.68-1.39-1.5-2.37-2.44-2.96c-0.95-0.58-2.34-0.87-4.19-0.87h-12.43v23.65c0,2.41,0.14,4.34,0.42,5.79
				c0.28,1.45,0.74,2.59,1.39,3.44c0.64,0.85,1.51,1.48,2.59,1.9c1.09,0.42,2.43,0.81,4.04,1.18v2.96h-26.79v-2.96
				c2.49-0.64,4.16-1.36,5.01-2.14c0.84-0.78,1.4-1.9,1.66-3.35c0.26-1.45,0.39-3.66,0.39-6.64v-52.19c0-2.78-0.1-4.8-0.3-6.06
				c-0.2-1.27-0.53-2.25-1-2.96c-0.46-0.7-1.08-1.27-1.84-1.69c-0.76-0.42-2.07-0.89-3.92-1.42v-2.96H-1019.64z"/>
			<path d="M-976.07,842.34v-2.96c2.01-0.4,3.51-0.84,4.49-1.33c0.99-0.48,1.72-1.16,2.2-2.02c0.48-0.86,0.72-2.02,0.72-3.47
				c0-1.37-0.16-2.85-0.48-4.44c-0.32-1.59-0.78-3.37-1.39-5.34l-2.23-7.78h-28.12l-2.05,5.91c-1.05,2.98-1.73,5.23-2.05,6.76
				c-0.32,1.53-0.48,2.92-0.48,4.16c0,2.41,0.61,4.18,1.84,5.31c1.23,1.13,3.11,1.87,5.64,2.23v2.96h-25.76v-2.96
				c2.25-0.36,4.21-1.67,5.88-3.92c1.67-2.25,3.29-5.47,4.86-9.65l25.16-66.79h9.53l20.51,67.27c0.97,3.14,1.82,5.53,2.56,7.18
				c0.74,1.65,1.64,2.94,2.68,3.86c1.05,0.93,2.47,1.61,4.28,2.05v2.96H-976.07z M-999.24,809.76h25.22l-11.46-38.92L-999.24,809.76
				z"/>
			<path d="M-936.13,823.58c0.8,3.54,1.89,6.34,3.26,8.39c1.37,2.05,3.14,3.57,5.31,4.56c2.17,0.99,4.97,1.48,8.39,1.48
				c4.71,0,8.32-1.23,10.83-3.68c2.51-2.45,3.77-6.03,3.77-10.74c0-3.02-0.52-5.55-1.57-7.6c-1.05-2.05-2.76-3.98-5.13-5.79
				c-2.37-1.81-5.99-3.92-10.86-6.34c-4.71-2.33-8.43-4.62-11.16-6.85c-2.74-2.23-4.78-4.66-6.12-7.27
				c-1.35-2.61-2.02-5.47-2.02-8.57c0-4.5,1.06-8.42,3.17-11.74c2.11-3.32,5.21-5.88,9.29-7.69c4.08-1.81,8.76-2.72,14.03-2.72
				c3.06,0,6.04,0.16,8.96,0.48c2.92,0.32,6.57,1.05,10.95,2.17v16.29h-5.97c-0.93-3.54-2.09-6.29-3.5-8.27
				c-1.41-1.97-3.06-3.35-4.95-4.13c-1.89-0.78-4.34-1.18-7.36-1.18c-2.62,0-4.96,0.48-7.03,1.45c-2.07,0.97-3.71,2.42-4.92,4.37
				c-1.21,1.95-1.81,4.28-1.81,6.97c0,2.86,0.51,5.27,1.54,7.24c1.03,1.97,2.62,3.8,4.8,5.49s5.39,3.58,9.65,5.67
				c5.15,2.57,9.14,4.97,11.98,7.18c2.84,2.21,5.05,4.74,6.64,7.57c1.59,2.84,2.38,6.14,2.38,9.93c0,4.22-0.66,7.79-1.99,10.71
				c-1.33,2.92-3.17,5.29-5.52,7.12c-2.35,1.83-5.17,3.16-8.45,3.98c-3.28,0.82-6.87,1.24-10.77,1.24c-6.32,0-13.6-1.07-21.84-3.2
				v-16.53H-936.13z"/>
			<path d="M-817.15,827.26c0,2.33,0.06,4.08,0.18,5.25c0.12,1.17,0.32,2.1,0.6,2.81c0.28,0.7,0.62,1.28,1.03,1.72
				c0.4,0.44,0.97,0.84,1.72,1.21c0.74,0.36,1.9,0.75,3.47,1.15v2.96h-25.28v-2.96c2.21-0.56,3.76-1.19,4.65-1.87
				c0.88-0.68,1.5-1.73,1.84-3.14c0.34-1.41,0.51-3.78,0.51-7.12v-25.28h-33.55v25.28c0,2.69,0.09,4.67,0.27,5.91
				c0.18,1.25,0.48,2.23,0.9,2.96c0.42,0.72,1.05,1.33,1.87,1.81c0.82,0.48,2.16,0.96,4.01,1.45v2.96h-25.4v-2.96
				c2.49-0.64,4.16-1.36,5.01-2.14c0.84-0.78,1.4-1.9,1.66-3.35c0.26-1.45,0.39-3.66,0.39-6.64v-52.19c0-2.78-0.1-4.8-0.3-6.06
				c-0.2-1.27-0.53-2.25-1-2.96c-0.46-0.7-1.08-1.27-1.84-1.69c-0.76-0.42-2.07-0.89-3.92-1.42v-2.96h25.4v2.96
				c-1.77,0.44-3.05,0.88-3.83,1.33c-0.78,0.44-1.41,1-1.87,1.66c-0.46,0.66-0.81,1.66-1.03,2.99c-0.22,1.33-0.33,3.38-0.33,6.16
				v21.36h33.55v-21.36c0-3.5-0.17-5.89-0.51-7.18c-0.34-1.29-0.92-2.27-1.72-2.96c-0.81-0.68-2.39-1.35-4.77-1.99v-2.96h25.28v2.96
				c-2.25,0.56-3.82,1.2-4.71,1.9c-0.89,0.7-1.49,1.76-1.81,3.17c-0.32,1.41-0.48,3.76-0.48,7.06V827.26z"/>
			<path d="M-777.09,827.26c0,2.69,0.09,4.67,0.27,5.91c0.18,1.25,0.48,2.23,0.9,2.96c0.42,0.72,1.05,1.33,1.87,1.81
				c0.82,0.48,2.16,0.96,4.01,1.45v2.96h-25.46v-2.96c2.49-0.64,4.16-1.36,5.01-2.14c0.84-0.78,1.4-1.9,1.66-3.35
				c0.26-1.45,0.39-3.66,0.39-6.64v-52.19c0-2.78-0.1-4.8-0.3-6.06c-0.2-1.27-0.53-2.25-1-2.96c-0.46-0.7-1.08-1.27-1.84-1.69
				c-0.76-0.42-2.07-0.89-3.92-1.42v-2.96h25.46v2.96c-1.77,0.44-3.05,0.88-3.83,1.33c-0.78,0.44-1.41,1-1.87,1.66
				c-0.46,0.66-0.81,1.66-1.03,2.99c-0.22,1.33-0.33,3.38-0.33,6.16V827.26z"/>
			<path d="M-723.27,843.31c-4.83,0-9.22-0.79-13.18-2.38c-3.96-1.59-7.36-4.06-10.2-7.42c-2.84-3.36-5.03-7.65-6.58-12.88
				c-1.55-5.23-2.32-11.48-2.32-18.76c0-8.97,1.37-16.67,4.1-23.11c2.73-6.44,6.65-11.33,11.74-14.69
				c5.09-3.36,10.99-5.04,17.71-5.04c7.16,0,13.18,1.58,18.07,4.74c4.89,3.16,8.57,7.8,11.04,13.94c2.47,6.13,3.71,13.6,3.71,22.41
				c0,9.41-1.41,17.36-4.22,23.83c-2.82,6.48-6.79,11.32-11.92,14.54C-710.45,841.7-716.43,843.31-723.27,843.31z M-743.12,800.17
				c0,12.35,1.8,21.74,5.4,28.18c3.6,6.44,8.86,9.65,15.78,9.65c4.38,0,8.1-1.4,11.16-4.19c3.06-2.8,5.35-6.89,6.88-12.28
				c1.53-5.39,2.29-11.68,2.29-18.88c0-8.77-0.9-16.04-2.69-21.81c-1.79-5.77-4.23-9.96-7.33-12.58c-3.1-2.62-6.7-3.92-10.8-3.92
				c-3.62,0-6.73,0.85-9.32,2.53c-2.59,1.69-4.75,4.09-6.46,7.21c-1.71,3.12-2.96,6.89-3.74,11.31
				C-742.73,789.81-743.12,794.74-743.12,800.17z"/>
			<path d="M-626.25,809.7c1.45,2.41,2.66,4.52,3.65,6.34c0.99,1.81,2,3.84,3.05,6.09h0.78c-0.2-2.45-0.38-7.33-0.54-14.63
				c-0.16-7.3-0.24-13.89-0.24-19.76v-12.67c0-2.78-0.08-4.81-0.24-6.09c-0.16-1.29-0.45-2.27-0.87-2.96
				c-0.42-0.68-1.01-1.24-1.75-1.66c-0.74-0.42-2.04-0.89-3.89-1.42v-2.96h21.72v2.96c-1.81,0.48-3.09,0.93-3.83,1.33
				c-0.74,0.4-1.35,0.93-1.81,1.57c-0.46,0.64-0.81,1.61-1.06,2.9c-0.24,1.29-0.36,3.4-0.36,6.34v67.63h-7.54l-33.61-56.35
				c-2.09-3.5-3.58-6.05-4.47-7.66s-1.71-3.2-2.47-4.77h-1.03c0.28,3.1,0.48,8.7,0.6,16.8c0.12,8.11,0.18,16.18,0.18,24.22v12.31
				c0,2.69,0.09,4.67,0.27,5.91c0.18,1.25,0.48,2.23,0.9,2.96c0.42,0.72,1.05,1.33,1.87,1.81c0.82,0.48,2.16,0.96,4.01,1.45v2.96
				h-22.02v-2.96c2.49-0.64,4.16-1.36,5.01-2.14s1.4-1.9,1.66-3.35c0.26-1.45,0.39-3.66,0.39-6.64v-52.19c0-2.78-0.1-4.8-0.3-6.06
				c-0.2-1.27-0.53-2.25-1-2.96c-0.46-0.7-1.08-1.27-1.84-1.69c-0.76-0.42-2.07-0.89-3.92-1.42v-2.96h18.88L-626.25,809.7z"/>
			<path d="M-507.81,761.73v16.71h-5.97c-0.97-3.5-2.19-6.28-3.68-8.36c-1.49-2.07-3.22-3.55-5.19-4.43
				c-1.97-0.88-4.34-1.33-7.12-1.33c-4.14,0-7.83,1.38-11.07,4.13c-3.24,2.75-5.78,6.9-7.63,12.43c-1.85,5.53-2.78,12.22-2.78,20.06
				c0,7.88,0.76,14.61,2.29,20.18c1.53,5.57,3.78,9.77,6.76,12.61c2.98,2.84,6.64,4.25,10.98,4.25c3.3,0,5.99-0.47,8.09-1.42
				c2.09-0.94,3.85-2.44,5.28-4.49c1.43-2.05,2.78-5.07,4.07-9.05h5.97v17.26c-3.78,1.01-7.65,1.76-11.61,2.26
				c-3.96,0.5-8.32,0.75-13.06,0.75c-10.22,0-17.94-3.46-23.17-10.38c-5.23-6.92-7.84-17.24-7.84-30.95
				c0-8.61,1.36-16.15,4.07-22.63c2.72-6.47,6.71-11.48,11.98-15.02c5.27-3.54,11.56-5.31,18.88-5.31c3.66,0,7.04,0.19,10.14,0.57
				C-515.33,759.98-511.79,760.69-507.81,761.73z"/>
			<path d="M-475.53,836.79h15.81c1.73,0,3.18-0.1,4.34-0.3c1.17-0.2,2.16-0.51,2.99-0.94c0.82-0.42,1.57-1,2.23-1.75
				c0.66-0.74,1.3-1.72,1.9-2.93c0.6-1.21,1.18-2.72,1.72-4.56c0.54-1.83,1.22-4.57,2.02-8.24h6.09l-1.21,24.25h-54.24v-2.96
				c2.49-0.64,4.16-1.36,5.01-2.14c0.84-0.78,1.4-1.9,1.66-3.35c0.26-1.45,0.39-3.66,0.39-6.64v-52.19c0-2.78-0.1-4.8-0.3-6.06
				c-0.2-1.27-0.53-2.25-1-2.96c-0.46-0.7-1.08-1.27-1.84-1.69c-0.76-0.42-2.07-0.89-3.92-1.42v-2.96h25.4v2.96
				c-1.77,0.48-3.03,0.91-3.77,1.3c-0.75,0.38-1.36,0.9-1.84,1.54c-0.48,0.64-0.85,1.63-1.09,2.96c-0.24,1.33-0.36,3.44-0.36,6.34
				V836.79z"/>
			<path d="M-409.16,827.26c0,2.69,0.09,4.67,0.27,5.91c0.18,1.25,0.48,2.23,0.91,2.96c0.42,0.72,1.05,1.33,1.87,1.81
				c0.82,0.48,2.16,0.96,4.01,1.45v2.96h-25.46v-2.96c2.49-0.64,4.16-1.36,5.01-2.14c0.84-0.78,1.4-1.9,1.66-3.35
				c0.26-1.45,0.39-3.66,0.39-6.64v-52.19c0-2.78-0.1-4.8-0.3-6.06c-0.2-1.27-0.53-2.25-1-2.96c-0.46-0.7-1.08-1.27-1.84-1.69
				c-0.76-0.42-2.07-0.89-3.92-1.42v-2.96h25.46v2.96c-1.77,0.44-3.05,0.88-3.83,1.33c-0.78,0.44-1.41,1-1.87,1.66
				c-0.46,0.66-0.81,1.66-1.03,2.99c-0.22,1.33-0.33,3.38-0.33,6.16V827.26z"/>
			<path d="M-331.93,761.73v16.71h-5.97c-0.96-3.5-2.19-6.28-3.68-8.36c-1.49-2.07-3.22-3.55-5.19-4.43
				c-1.97-0.88-4.35-1.33-7.12-1.33c-4.14,0-7.83,1.38-11.07,4.13c-3.24,2.75-5.78,6.9-7.63,12.43c-1.85,5.53-2.78,12.22-2.78,20.06
				c0,7.88,0.76,14.61,2.29,20.18c1.53,5.57,3.78,9.77,6.76,12.61c2.98,2.84,6.64,4.25,10.98,4.25c3.3,0,5.99-0.47,8.09-1.42
				c2.09-0.94,3.85-2.44,5.28-4.49c1.43-2.05,2.79-5.07,4.07-9.05h5.97v17.26c-3.78,1.01-7.65,1.76-11.62,2.26
				c-3.96,0.5-8.32,0.75-13.06,0.75c-10.22,0-17.94-3.46-23.17-10.38c-5.23-6.92-7.84-17.24-7.84-30.95
				c0-8.61,1.36-16.15,4.07-22.63c2.72-6.47,6.71-11.48,11.98-15.02c5.27-3.54,11.56-5.31,18.88-5.31c3.66,0,7.04,0.19,10.14,0.57
				C-339.46,759.98-335.92,760.69-331.93,761.73z"/>
			<path d="M-299.71,797.21h1.81c1.53,0,2.93-0.24,4.19-0.72c1.27-0.48,2.69-1.39,4.26-2.72c1.57-1.33,3.96-3.8,7.18-7.42
				c3.86-4.3,6.5-7.42,7.9-9.35c1.77-2.29,2.96-4.22,3.56-5.79c0.48-1.17,0.73-2.29,0.73-3.38c0-1.61-0.46-2.78-1.39-3.53
				c-0.93-0.74-2.19-1.2-3.8-1.36v-2.96h26.3v2.96c-1.29,0.28-2.56,0.78-3.8,1.48c-1.25,0.7-2.53,1.67-3.83,2.9
				c-1.31,1.23-3.23,3.25-5.76,6.06l-20.27,22.81l21.96,31.92c2.33,3.38,4.16,5.74,5.49,7.09s2.59,2.33,3.8,2.96
				c1.21,0.62,2.49,1.03,3.86,1.24v2.96h-26.61v-2.96c1.49-0.12,2.57-0.4,3.26-0.84c0.68-0.44,1.03-1.11,1.03-1.99
				c0-0.72-0.23-1.6-0.69-2.62c-0.46-1.03-1.2-2.26-2.2-3.71l-14.06-20.94c-1.65-2.49-2.86-4.14-3.62-4.95
				c-0.76-0.81-1.59-1.4-2.47-1.78s-2.07-0.57-3.56-0.57h-3.2v25.28c0,2.69,0.09,4.67,0.27,5.91c0.18,1.25,0.48,2.23,0.91,2.96
				c0.42,0.72,1.05,1.33,1.87,1.81c0.82,0.48,2.16,0.96,4.01,1.45v2.96H-318v-2.96c2.49-0.64,4.16-1.36,5.01-2.14s1.4-1.9,1.66-3.35
				c0.26-1.45,0.39-3.66,0.39-6.64v-52.19c0-2.78-0.1-4.8-0.3-6.06c-0.2-1.27-0.53-2.25-1-2.96c-0.46-0.7-1.08-1.27-1.84-1.69
				c-0.76-0.42-2.07-0.89-3.92-1.42v-2.96h25.4v2.96c-1.77,0.44-3.05,0.88-3.83,1.33c-0.79,0.44-1.41,1-1.87,1.66
				c-0.46,0.66-0.8,1.66-1.03,2.99c-0.22,1.33-0.33,3.38-0.33,6.16L-299.71,797.21z"/>
			<path d="M-227.79,836.79h21.78c2.69,0,4.7-0.25,6-0.75c1.31-0.5,2.38-1.29,3.23-2.35c0.85-1.06,1.61-2.56,2.29-4.5
				c0.68-1.93,1.51-4.93,2.47-8.99h5.91v22.14h-55.75v-2.96l41.33-73.85h-21.9c-1.57,0-2.81,0.13-3.71,0.39
				c-0.9,0.26-1.72,0.66-2.44,1.21c-0.72,0.54-1.44,1.34-2.14,2.38c-0.7,1.05-1.41,2.48-2.11,4.31c-0.7,1.83-1.44,4.11-2.2,6.85
				h-5.91v-20.7h54.42v2.9L-227.79,836.79z"/>
		</g>
	</g>
</g>
<g>
	<g>
		<g>
			<path d="M300.3,457.1v-88.87H109.62c-29.22,0-55.96,13.81-71.56,36.94c-10.01,14.8-14.99,31.96-14.42,49.53
				c0.65,19.44,8.22,38.27,21.38,53.03c14.88,16.74,36.64,26.75,60.19,27.77v176.57H70.66v7.61h76.74v-7.61h-34.58V535.62h128.9
				v14.46H125.94V621h123.38v-92.98h-136.5V457.1H300.3z M111.22,390.07c-18.53,0-35.27,7.49-47.4,19.63
				c-12.14,12.14-19.63,28.91-19.63,47.4h61.02v70.8c-21.38-1.03-41.09-10.12-54.52-25.22c-11.95-13.43-18.87-30.55-19.44-48.2
				c-0.53-15.98,3.99-31.58,13.09-45.05c14.23-21.04,38.62-33.59,65.28-33.59h183.07v14.23H111.22z"/>
		</g>
		<g>
			<g>
				<path d="M439.01,409.11v23.7h-7.69c-1.15-3.56-2.26-6.44-3.34-8.63c-1.07-2.2-2.2-3.87-3.37-5.02s-2.55-1.96-4.12-2.43
					c-1.57-0.47-3.64-0.71-6.2-0.71h-23v42.69h16.17c2.3,0,4.11-0.38,5.42-1.14c1.31-0.76,2.39-2.03,3.26-3.81
					c0.86-1.78,1.69-4.53,2.47-8.24h7.38v33.12h-7.38c-0.79-3.56-1.62-6.24-2.51-8.04c-0.89-1.8-1.95-3.09-3.18-3.85
					c-1.23-0.76-3.05-1.14-5.45-1.14H391.3v30.77c0,3.14,0.18,5.65,0.55,7.53c0.37,1.88,0.97,3.37,1.81,4.47
					c0.84,1.1,1.96,1.92,3.37,2.47c1.41,0.55,3.17,1.06,5.26,1.53v3.85h-34.85v-3.85c3.24-0.83,5.42-1.77,6.51-2.79
					c1.1-1.02,1.82-2.47,2.16-4.36c0.34-1.88,0.51-4.76,0.51-8.63v-67.89c0-3.61-0.13-6.24-0.39-7.89c-0.26-1.65-0.69-2.93-1.3-3.85
					c-0.6-0.91-1.4-1.65-2.39-2.2c-0.99-0.55-2.7-1.16-5.1-1.84v-3.85H439.01z"/>
				<path d="M495.68,516.24v-3.85c2.62-0.52,4.56-1.1,5.85-1.73c1.28-0.63,2.24-1.5,2.86-2.63c0.63-1.12,0.94-2.63,0.94-4.51
					c0-1.78-0.21-3.7-0.63-5.77c-0.42-2.07-1.02-4.38-1.81-6.95l-2.9-10.12h-36.57l-2.67,7.69c-1.36,3.87-2.25,6.8-2.67,8.79
					c-0.42,1.99-0.63,3.8-0.63,5.42c0,3.14,0.8,5.44,2.39,6.91c1.6,1.46,4.04,2.43,7.34,2.9v3.85h-33.51v-3.85
					c2.93-0.47,5.48-2.17,7.65-5.1c2.17-2.93,4.28-7.12,6.32-12.56l32.73-86.88h12.4l26.68,87.51c1.26,4.08,2.37,7.2,3.34,9.34
					c0.97,2.15,2.13,3.82,3.49,5.02c1.36,1.21,3.22,2.09,5.57,2.67v3.85H495.68z M465.54,473.86h32.81l-14.91-50.62L465.54,473.86z"
					/>
				<path d="M547.63,491.83c1.05,4.61,2.46,8.24,4.24,10.91c1.78,2.67,4.08,4.64,6.91,5.93c2.83,1.28,6.46,1.92,10.91,1.92
					c6.12,0,10.82-1.6,14.09-4.79c3.27-3.19,4.91-7.85,4.91-13.97c0-3.92-0.68-7.22-2.04-9.89s-3.58-5.18-6.67-7.53
					c-3.09-2.36-7.8-5.1-14.13-8.24c-6.12-3.03-10.96-6-14.52-8.91c-3.56-2.9-6.21-6.06-7.97-9.46c-1.75-3.4-2.63-7.12-2.63-11.15
					c0-5.86,1.37-10.95,4.12-15.26c2.75-4.32,6.77-7.65,12.09-10.01c5.31-2.35,11.39-3.53,18.25-3.53c3.98,0,7.86,0.21,11.66,0.63
					c3.79,0.42,8.54,1.36,14.24,2.83v21.19h-7.77c-1.2-4.6-2.72-8.19-4.55-10.75c-1.83-2.56-3.98-4.36-6.44-5.38
					c-2.46-1.02-5.65-1.53-9.57-1.53c-3.4,0-6.45,0.63-9.14,1.88c-2.7,1.26-4.83,3.15-6.4,5.69c-1.57,2.54-2.35,5.56-2.35,9.07
					c0,3.72,0.67,6.85,2,9.42c1.33,2.56,3.41,4.94,6.24,7.14c2.83,2.2,7.01,4.66,12.56,7.38c6.7,3.35,11.89,6.46,15.58,9.34
					c3.69,2.88,6.57,6.16,8.63,9.85c2.07,3.69,3.1,7.99,3.1,12.91c0,5.49-0.86,10.14-2.59,13.93c-1.73,3.8-4.12,6.88-7.18,9.26
					c-3.06,2.38-6.72,4.11-10.99,5.18c-4.27,1.07-8.94,1.61-14.01,1.61c-8.22,0-17.69-1.39-28.41-4.16v-21.5H547.63z"/>
				<path d="M702.4,496.62c0,3.03,0.08,5.31,0.24,6.83c0.16,1.52,0.42,2.73,0.79,3.65c0.37,0.92,0.81,1.66,1.33,2.24
					c0.52,0.58,1.27,1.1,2.24,1.57c0.97,0.47,2.47,0.97,4.51,1.49v3.85h-32.88v-3.85c2.88-0.73,4.89-1.54,6.04-2.43
					c1.15-0.89,1.95-2.25,2.39-4.08c0.44-1.83,0.67-4.92,0.67-9.26v-32.89h-43.64v32.89c0,3.51,0.12,6.07,0.35,7.69
					c0.24,1.62,0.63,2.9,1.18,3.85c0.55,0.94,1.36,1.73,2.43,2.35c1.07,0.63,2.81,1.25,5.22,1.88v3.85h-33.04v-3.85
					c3.24-0.83,5.42-1.77,6.51-2.79c1.1-1.02,1.82-2.47,2.16-4.36c0.34-1.88,0.51-4.76,0.51-8.63v-67.89c0-3.61-0.13-6.24-0.39-7.89
					c-0.26-1.65-0.69-2.93-1.3-3.85c-0.6-0.91-1.4-1.65-2.39-2.2c-0.99-0.55-2.7-1.16-5.1-1.84v-3.85h33.04v3.85
					c-2.3,0.58-3.96,1.15-4.98,1.73c-1.02,0.58-1.83,1.3-2.43,2.16c-0.6,0.86-1.05,2.16-1.33,3.88c-0.29,1.73-0.43,4.4-0.43,8.01
					v27.78h43.64v-27.78c0-4.55-0.22-7.67-0.67-9.34c-0.44-1.67-1.19-2.95-2.24-3.84c-1.05-0.89-3.11-1.75-6.2-2.59v-3.85h32.88
					v3.85c-2.93,0.73-4.97,1.56-6.12,2.47c-1.15,0.92-1.94,2.29-2.35,4.12c-0.42,1.83-0.63,4.89-0.63,9.18V496.62z"/>
				<path d="M754.51,496.62c0,3.51,0.12,6.07,0.35,7.69c0.24,1.62,0.63,2.9,1.18,3.85c0.55,0.94,1.36,1.73,2.43,2.35
					c1.07,0.63,2.81,1.25,5.22,1.88v3.85h-33.12v-3.85c3.24-0.83,5.42-1.77,6.51-2.79c1.1-1.02,1.82-2.47,2.16-4.36
					c0.34-1.88,0.51-4.76,0.51-8.63v-67.89c0-3.61-0.13-6.24-0.39-7.89c-0.26-1.65-0.69-2.93-1.3-3.85c-0.6-0.91-1.4-1.65-2.39-2.2
					c-0.99-0.55-2.7-1.16-5.1-1.84v-3.85h33.12v3.85c-2.3,0.58-3.96,1.15-4.98,1.73c-1.02,0.58-1.83,1.3-2.43,2.16
					c-0.6,0.86-1.05,2.16-1.33,3.88c-0.29,1.73-0.43,4.4-0.43,8.01V496.62z"/>
				<path d="M824.52,517.5c-6.28,0-12-1.03-17.15-3.1c-5.15-2.07-9.57-5.28-13.26-9.65c-3.69-4.37-6.54-9.95-8.55-16.75
					c-2.01-6.8-3.02-14.94-3.02-24.41c0-11.67,1.78-21.69,5.34-30.06c3.56-8.37,8.64-14.74,15.26-19.11
					c6.62-4.37,14.3-6.55,23.03-6.55c9.31,0,17.15,2.06,23.51,6.16c6.36,4.11,11.15,10.15,14.36,18.13
					c3.22,7.98,4.83,17.7,4.83,29.16c0,12.24-1.83,22.58-5.49,31c-3.66,8.42-8.83,14.73-15.5,18.91
					C841.19,515.41,833.41,517.5,824.52,517.5z M798.7,461.38c0,16.06,2.34,28.28,7.02,36.65c4.68,8.37,11.52,12.56,20.52,12.56
					c5.7,0,10.54-1.82,14.52-5.46c3.98-3.64,6.96-8.96,8.95-15.97c1.99-7.01,2.98-15.2,2.98-24.56c0-11.41-1.17-20.86-3.49-28.37
					c-2.33-7.51-5.51-12.96-9.53-16.36c-4.03-3.4-8.71-5.1-14.05-5.1c-4.71,0-8.75,1.1-12.13,3.3c-3.38,2.2-6.17,5.32-8.4,9.38
					c-2.22,4.06-3.85,8.96-4.87,14.71C799.21,447.91,798.7,454.32,798.7,461.38z"/>
				<path d="M950.72,473.78c1.88,3.14,3.47,5.88,4.75,8.24c1.28,2.35,2.6,5,3.96,7.93h1.02c-0.26-3.19-0.5-9.54-0.71-19.03
					c-0.21-9.5-0.31-18.06-0.31-25.7v-16.48c0-3.61-0.11-6.25-0.31-7.93c-0.21-1.68-0.59-2.96-1.14-3.85
					c-0.55-0.89-1.31-1.61-2.28-2.16c-0.97-0.55-2.66-1.16-5.06-1.84v-3.85h28.25v3.85c-2.35,0.63-4.02,1.2-4.98,1.73
					c-0.97,0.52-1.75,1.2-2.35,2.04c-0.6,0.84-1.06,2.09-1.37,3.77c-0.31,1.67-0.47,4.42-0.47,8.24v87.98h-9.81l-43.71-73.3
					c-2.72-4.55-4.66-7.87-5.81-9.97c-1.15-2.09-2.22-4.16-3.22-6.2h-1.33c0.37,4.03,0.63,11.31,0.79,21.86
					c0.16,10.54,0.24,21.05,0.24,31.51v16.01c0,3.51,0.12,6.07,0.35,7.69c0.24,1.62,0.63,2.9,1.18,3.85
					c0.55,0.94,1.36,1.73,2.43,2.35c1.07,0.63,2.81,1.25,5.22,1.88v3.85h-28.65v-3.85c3.24-0.83,5.41-1.77,6.51-2.79
					c1.1-1.02,1.82-2.47,2.16-4.36c0.34-1.88,0.51-4.76,0.51-8.63v-67.89c0-3.61-0.13-6.24-0.39-7.89c-0.26-1.65-0.69-2.93-1.3-3.85
					c-0.6-0.91-1.4-1.65-2.39-2.2c-0.99-0.55-2.69-1.16-5.1-1.84v-3.85h24.56L950.72,473.78z"/>
			</g>
			<g>
				<path d="M439.88,573.95v21.74h-7.77c-1.26-4.55-2.85-8.17-4.79-10.87c-1.93-2.69-4.19-4.62-6.75-5.77
					c-2.56-1.15-5.65-1.73-9.26-1.73c-5.39,0-10.19,1.79-14.4,5.38c-4.21,3.58-7.52,8.97-9.93,16.17c-2.41,7.2-3.61,15.89-3.61,26.1
					c0,10.26,0.99,19.01,2.98,26.25c1.99,7.25,4.92,12.71,8.79,16.4c3.87,3.69,8.63,5.53,14.28,5.53c4.29,0,7.8-0.61,10.52-1.85
					c2.72-1.23,5.01-3.18,6.87-5.85c1.86-2.67,3.62-6.59,5.3-11.77h7.77v22.45c-4.92,1.31-9.95,2.29-15.11,2.94
					c-5.16,0.65-10.82,0.98-16.99,0.98c-13.29,0-23.34-4.5-30.14-13.5c-6.8-9-10.2-22.42-10.2-40.26c0-11.2,1.77-21,5.3-29.43
					c3.53-8.42,8.72-14.94,15.58-19.54c6.85-4.6,15.04-6.91,24.56-6.91c4.76,0,9.16,0.25,13.19,0.75
					C430.09,571.66,434.7,572.59,439.88,573.95z"/>
				<path d="M481.86,671.58h20.56c2.25,0,4.13-0.13,5.65-0.39c1.52-0.26,2.81-0.67,3.89-1.22c1.07-0.55,2.04-1.31,2.9-2.28
					c0.86-0.97,1.69-2.24,2.47-3.81c0.79-1.57,1.53-3.54,2.24-5.93c0.71-2.38,1.58-5.95,2.63-10.71h7.93l-1.57,31.55h-70.55v-3.85
					c3.24-0.83,5.41-1.77,6.51-2.79c1.1-1.02,1.82-2.47,2.16-4.36c0.34-1.88,0.51-4.76,0.51-8.63v-67.89c0-3.61-0.13-6.24-0.39-7.89
					c-0.26-1.65-0.69-2.93-1.3-3.85c-0.6-0.91-1.4-1.65-2.4-2.2c-0.99-0.55-2.7-1.16-5.1-1.84v-3.85h33.04v3.85
					c-2.3,0.63-3.94,1.19-4.91,1.69c-0.97,0.5-1.77,1.16-2.39,2c-0.63,0.84-1.1,2.12-1.41,3.85c-0.31,1.73-0.47,4.47-0.47,8.24
					V671.58z"/>
				<path d="M568.2,659.18c0,3.51,0.12,6.07,0.35,7.69c0.24,1.62,0.63,2.9,1.18,3.85c0.55,0.94,1.36,1.73,2.43,2.35
					s2.81,1.25,5.22,1.88v3.85h-33.12v-3.85c3.24-0.83,5.41-1.77,6.51-2.79c1.1-1.02,1.82-2.47,2.16-4.36
					c0.34-1.88,0.51-4.76,0.51-8.63v-67.89c0-3.61-0.13-6.24-0.39-7.89c-0.26-1.65-0.69-2.93-1.3-3.85c-0.6-0.91-1.4-1.65-2.4-2.2
					c-0.99-0.55-2.7-1.16-5.1-1.84v-3.85h33.12v3.85c-2.3,0.58-3.96,1.15-4.98,1.73c-1.02,0.58-1.83,1.3-2.43,2.16
					c-0.6,0.86-1.05,2.16-1.33,3.88c-0.29,1.73-0.43,4.4-0.43,8.01V659.18z"/>
				<path d="M668.65,573.95v21.74h-7.77c-1.25-4.55-2.85-8.17-4.79-10.87c-1.94-2.69-4.19-4.62-6.75-5.77
					c-2.56-1.15-5.65-1.73-9.26-1.73c-5.39,0-10.19,1.79-14.4,5.38c-4.21,3.58-7.52,8.97-9.93,16.17c-2.41,7.2-3.61,15.89-3.61,26.1
					c0,10.26,0.99,19.01,2.98,26.25c1.99,7.25,4.92,12.71,8.79,16.4c3.87,3.69,8.63,5.53,14.28,5.53c4.29,0,7.8-0.61,10.52-1.85
					c2.72-1.23,5.01-3.18,6.87-5.85s3.62-6.59,5.3-11.77h7.77v22.45c-4.92,1.31-9.96,2.29-15.11,2.94
					c-5.15,0.65-10.82,0.98-16.99,0.98c-13.29,0-23.34-4.5-30.14-13.5c-6.8-9-10.2-22.42-10.2-40.26c0-11.2,1.77-21,5.3-29.43
					c3.53-8.42,8.72-14.94,15.58-19.54c6.85-4.6,15.04-6.91,24.56-6.91c4.76,0,9.16,0.25,13.19,0.75
					C658.87,571.66,663.47,572.59,668.65,573.95z"/>
				<path d="M710.56,620.1h2.35c1.99,0,3.81-0.31,5.45-0.94c1.65-0.63,3.5-1.81,5.54-3.53c2.04-1.73,5.15-4.94,9.34-9.65
					c5.02-5.6,8.45-9.65,10.28-12.17c2.3-2.98,3.85-5.49,4.63-7.53c0.63-1.52,0.94-2.98,0.94-4.39c0-2.09-0.6-3.62-1.81-4.59
					c-1.21-0.97-2.85-1.56-4.94-1.77v-3.85h34.22v3.85c-1.67,0.37-3.32,1.01-4.94,1.92c-1.62,0.91-3.28,2.17-4.99,3.77
					c-1.7,1.6-4.2,4.23-7.49,7.89l-26.37,29.67l28.57,41.52c3.03,4.39,5.41,7.47,7.14,9.22c1.73,1.75,3.37,3.03,4.95,3.85
					c1.57,0.81,3.24,1.35,5.02,1.61v3.85h-34.61v-3.85c1.93-0.16,3.35-0.52,4.24-1.1c0.89-0.58,1.33-1.44,1.33-2.59
					c0-0.94-0.3-2.08-0.9-3.41c-0.6-1.33-1.56-2.94-2.86-4.83l-18.29-27.23c-2.15-3.24-3.72-5.39-4.71-6.43
					c-0.99-1.05-2.07-1.82-3.22-2.32c-1.15-0.5-2.7-0.75-4.63-0.75h-4.16v32.89c0,3.51,0.12,6.07,0.35,7.69
					c0.24,1.62,0.63,2.9,1.18,3.85c0.55,0.94,1.36,1.73,2.43,2.35c1.07,0.63,2.81,1.25,5.22,1.88v3.85h-33.04v-3.85
					c3.24-0.83,5.42-1.77,6.51-2.79c1.1-1.02,1.82-2.47,2.16-4.36c0.34-1.88,0.51-4.76,0.51-8.63v-67.89c0-3.61-0.13-6.24-0.39-7.89
					c-0.26-1.65-0.69-2.93-1.3-3.85c-0.6-0.91-1.4-1.65-2.39-2.2c-0.99-0.55-2.7-1.16-5.1-1.84v-3.85h33.04v3.85
					c-2.31,0.58-3.96,1.15-4.99,1.73c-1.02,0.58-1.83,1.3-2.43,2.16c-0.6,0.86-1.05,2.16-1.33,3.88c-0.29,1.73-0.43,4.4-0.43,8.01
					L710.56,620.1z"/>
				<path d="M804.11,671.58h28.33c3.51,0,6.11-0.33,7.81-0.98c1.7-0.65,3.1-1.67,4.2-3.06c1.1-1.38,2.09-3.34,2.98-5.85
					c0.89-2.51,1.96-6.41,3.22-11.69h7.69v28.8h-72.52v-3.85l53.76-96.06H811.1c-2.04,0-3.65,0.17-4.83,0.51
					c-1.18,0.34-2.24,0.86-3.18,1.57c-0.94,0.71-1.87,1.74-2.79,3.1c-0.92,1.36-1.83,3.23-2.75,5.61c-0.92,2.38-1.87,5.35-2.87,8.91
					H787v-26.92h70.79v3.77L804.11,671.58z"/>
			</g>
		</g>
		<g>
			<g>
				<path class="st0" d="M1027.26,418.61c-16.07,0-29.15-13.07-29.15-29.15c0-16.07,13.08-29.15,29.15-29.15
					c16.07,0,29.15,13.07,29.15,29.15C1056.4,405.53,1043.33,418.61,1027.26,418.61z M1027.26,362.83
					c-14.68,0-26.63,11.94-26.63,26.63c0,14.68,11.94,26.63,26.63,26.63c14.68,0,26.63-11.94,26.63-26.63
					C1053.88,374.78,1041.94,362.83,1027.26,362.83z"/>
			</g>
			<g>
				<path class="st0" d="M1013.65,383.77h-6.72v-2.87h16.67v2.87h-6.75v17.09h-3.21V383.77z"/>
				<path class="st0" d="M1045.56,380.56v20.3h-3.21v-12.52l-5.72,7.5h-1.09l-5.75-7.53v12.55h-3.21v-20.3h1.12l8.38,11.16
					l8.38-11.16H1045.56z"/>
			</g>
		</g>
	</g>
	<rect x="333" y="408.84" width="4.6" height="271.34"/>
</g>
</svg>
