<svg width="500" height="500" viewBox="0 0 500 500" fill="none" xmlns="http://www.w3.org/2000/svg">
<g clip-path="url(#clip0_1278_5602)">
<path d="M246.082 404.107C345.503 404.107 426.098 323.511 426.098 224.091C426.098 124.671 345.503 44.075 246.082 44.075C146.662 44.075 66.0664 124.671 66.0664 224.091C66.0664 323.511 146.662 404.107 246.082 404.107Z" fill="#F2F6F9"/>
<path d="M471.3 459.393H39.0488C32.9968 459.393 28.0898 454.487 28.0898 448.434C28.0898 442.382 32.9958 437.475 39.0488 437.475H471.3C477.352 437.475 482.259 442.381 482.259 448.434C482.259 454.487 477.353 459.393 471.3 459.393Z" fill="#A0EFEA"/>
<path d="M407.15 407.072C404.666 354.491 433.873 333.048 433.873 333.048C433.873 333.048 440.73 391.34 407.15 407.072Z" fill="#166B6F"/>
<path d="M433.875 333.048C423.97 368.617 407.07 404.929 407.07 404.929" stroke="#35BFBF" stroke-width="0.963118" stroke-miterlimit="10"/>
<path d="M398.32 422.213C439.406 389.306 473.919 400.338 473.919 400.338C473.919 400.338 430.781 440.139 398.32 422.213Z" fill="#166B6F"/>
<path d="M473.917 400.338C439.316 413.225 400.004 420.888 400.004 420.888" stroke="#35BFBF" stroke-width="0.963118" stroke-miterlimit="10"/>
<path d="M397.449 427.535C420.257 364.952 464.828 354.202 464.828 354.202C464.828 354.202 444.333 425.591 397.449 427.535Z" fill="#17484A"/>
<path d="M464.83 354.202C435.88 390.876 398.402 424.994 398.402 424.994" stroke="#35BFBF" stroke-width="0.963118" stroke-miterlimit="10"/>
<g opacity="0.2">
<path d="M72.3084 239.45C59.1252 239.45 48.4375 250.137 48.4375 263.321C48.4375 276.504 59.1252 287.191 72.3084 287.191C85.4915 287.191 96.1792 276.504 96.1792 263.321C96.1792 250.137 85.4915 239.45 72.3084 239.45ZM72.3084 276.549C64.9964 276.549 59.0703 270.632 59.0703 263.321C59.0703 256.018 64.9964 250.092 72.3084 250.092C79.6107 250.092 85.5368 256.018 85.5368 263.321C85.5378 270.632 79.6117 276.549 72.3084 276.549Z" fill="#175458"/>
<path d="M74.8873 241.143H69.7211C68.3092 241.143 67.1641 239.998 67.1641 238.586V233.722C67.1641 232.31 68.3092 231.165 69.7211 231.165H74.8873C76.2992 231.165 77.4444 232.31 77.4444 233.722V238.586C77.4444 239.998 76.2992 241.143 74.8873 241.143Z" fill="#175458"/>
<path d="M58.4492 245.812L54.7961 249.465C53.7973 250.464 52.1783 250.464 51.1805 249.465L47.7413 246.027C46.7425 245.028 46.7425 243.409 47.7413 242.411L51.3944 238.758C52.3931 237.76 54.0121 237.76 55.0099 238.758L58.4492 242.197C59.447 243.195 59.447 244.814 58.4492 245.812Z" fill="#175458"/>
<path d="M50.1263 260.738V265.905C50.1263 267.317 48.9812 268.462 47.5693 268.462H42.7055C41.2936 268.462 40.1484 267.317 40.1484 265.905V260.738C40.1484 259.327 41.2936 258.181 42.7055 258.181H47.5693C48.9812 258.181 50.1263 259.327 50.1263 260.738Z" fill="#175458"/>
<path d="M54.7961 277.177L58.4492 280.83C59.4479 281.829 59.4479 283.448 58.4492 284.446L55.0099 287.884C54.0111 288.883 52.3921 288.883 51.3944 287.884L47.7413 284.231C46.7425 283.232 46.7425 281.613 47.7413 280.615L51.1796 277.177C52.1783 276.178 53.7973 276.178 54.7961 277.177Z" fill="#175458"/>
<path d="M69.7211 285.499H74.8873C76.2992 285.499 77.4444 286.644 77.4444 288.056V292.92C77.4444 294.332 76.2992 295.477 74.8873 295.477H69.7211C68.3092 295.477 67.1641 294.332 67.1641 292.92V288.056C67.165 286.644 68.3092 285.499 69.7211 285.499Z" fill="#175458"/>
<path d="M86.1592 280.83L89.8123 277.177C90.8111 276.178 92.4301 276.178 93.4279 277.177L96.8662 280.615C97.865 281.614 97.865 283.233 96.8662 284.231L93.2131 287.884C92.2143 288.883 90.5953 288.883 89.5976 287.884L86.1592 284.446C85.1605 283.447 85.1605 281.828 86.1592 280.83Z" fill="#175458"/>
<path d="M94.4844 265.904V260.737C94.4844 259.326 95.6295 258.18 97.0415 258.18H101.905C103.317 258.18 104.462 259.326 104.462 260.737V265.904C104.462 267.316 103.317 268.461 101.905 268.461H97.0415C95.6286 268.461 94.4844 267.317 94.4844 265.904Z" fill="#175458"/>
<path d="M89.8123 249.465L86.1592 245.812C85.1605 244.813 85.1605 243.194 86.1592 242.197L89.5976 238.758C90.5963 237.76 92.2153 237.76 93.2131 238.758L96.8662 242.411C97.865 243.41 97.865 245.029 96.8662 246.027L93.4279 249.465C92.4301 250.464 90.8111 250.464 89.8123 249.465Z" fill="#175458"/>
</g>
<g opacity="0.1">
<path d="M104.38 322.27C78.0151 322.27 56.6406 343.645 56.6406 370.01C56.6406 396.375 78.0151 417.75 104.38 417.75C130.746 417.75 152.12 396.375 152.12 370.01C152.121 343.645 130.746 322.27 104.38 322.27ZM104.38 396.467C89.7574 396.467 77.9053 384.633 77.9053 370.01C77.9053 355.405 89.7574 343.553 104.38 343.553C118.985 343.553 130.837 355.405 130.837 370.01C130.837 384.633 118.985 396.467 104.38 396.467Z" fill="#17868A"/>
<path d="M112.096 325.657H96.6508C95.2389 325.657 94.0938 324.511 94.0938 323.099V308.26C94.0938 306.848 95.2389 305.703 96.6508 305.703H112.096C113.508 305.703 114.653 306.848 114.653 308.26V323.099C114.653 324.511 113.508 325.657 112.096 325.657Z" fill="#17868A"/>
<path d="M78.47 333.187L67.5492 344.109C66.5504 345.108 64.9314 345.108 63.9336 344.109L53.4405 333.616C52.4417 332.617 52.4417 330.998 53.4405 330L64.3622 319.079C65.361 318.081 66.98 318.081 67.9778 319.079L78.4709 329.573C79.4687 330.57 79.4687 332.188 78.47 333.187Z" fill="#17868A"/>
<path d="M60.0203 362.29V377.734C60.0203 379.146 58.8751 380.291 57.4632 380.291H42.6235C41.2116 380.291 40.0664 379.146 40.0664 377.734V362.29C40.0664 360.878 41.2116 359.733 42.6235 359.733H57.4632C58.8751 359.733 60.0203 360.878 60.0203 362.29Z" fill="#17868A"/>
<path d="M67.5492 395.915L78.4709 406.837C79.4697 407.835 79.4697 409.454 78.4709 410.452L67.9778 420.945C66.979 421.944 65.36 421.944 64.3622 420.945L53.4405 410.024C52.4417 409.025 52.4417 407.406 53.4405 406.408L63.9336 395.915C64.9314 394.917 66.5504 394.917 67.5492 395.915Z" fill="#17868A"/>
<path d="M96.6508 414.367H112.095C113.507 414.367 114.652 415.513 114.652 416.925V431.764C114.652 433.176 113.507 434.321 112.095 434.321H96.6508C95.2389 434.321 94.0938 433.176 94.0938 431.764V416.925C94.0947 415.512 95.2389 414.367 96.6508 414.367Z" fill="#17868A"/>
<path d="M130.28 406.837L141.202 395.916C142.201 394.917 143.82 394.917 144.818 395.916L155.311 406.409C156.31 407.408 156.31 409.027 155.311 410.025L144.389 420.947C143.39 421.945 141.771 421.945 140.773 420.947L130.28 410.453C129.282 409.455 129.282 407.836 130.28 406.837Z" fill="#17868A"/>
<path d="M148.73 377.734V362.29C148.73 360.878 149.876 359.733 151.288 359.733H166.127C167.539 359.733 168.684 360.878 168.684 362.29V377.734C168.684 379.146 167.539 380.291 166.127 380.291H151.287C149.875 380.291 148.73 379.146 148.73 377.734Z" fill="#17868A"/>
<path d="M141.202 344.109L130.28 333.187C129.282 332.188 129.282 330.569 130.28 329.572L140.773 319.078C141.772 318.08 143.391 318.08 144.389 319.078L155.31 329.999C156.309 330.998 156.309 332.617 155.31 333.615L144.818 344.109C143.819 345.107 142.2 345.107 141.202 344.109Z" fill="#17868A"/>
</g>
<path d="M123.232 58.3364C101.577 58.5575 83.6175 64.7563 83.6175 64.7563C83.6175 64.7563 87.276 86.127 62.0234 93.5995C63.2683 175.699 96.9814 200.909 127.608 200.909C158.234 200.909 191.948 175.7 193.193 93.5995C167.941 86.127 171.599 64.7563 171.599 64.7563C171.599 64.7563 151.165 57.7042 127.608 58.3755C126.137 58.3341 124.676 58.3214 123.232 58.3364Z" fill="#A0EFEA"/>
<path d="M127.342 66.7371C125.996 66.6991 124.656 66.6887 123.332 66.7014C108.259 66.8557 97.7145 69.5872 92.3758 71.1395C92.1639 73.4795 91.7689 76.1039 90.721 79.0404C88.2014 86.0948 82.0429 93.9957 71.1641 99.0107C72.4642 135.697 80.6713 159.348 91.0665 173.221C102.024 187.845 114.846 192.543 127.611 192.543C140.378 192.543 153.199 187.845 164.156 173.221C174.552 159.347 182.758 135.697 184.059 99.0107C173.179 93.9957 167.02 86.0948 164.502 79.0404C163.436 76.0578 163.04 73.3908 162.832 71.0232C155.699 69.145 142.534 66.3179 127.881 66.7359L127.342 66.7371Z" fill="#CFF8F4" stroke="#35BFBF" stroke-width="1.15156" stroke-miterlimit="2.5989" stroke-linecap="round" stroke-linejoin="round"/>
<path d="M120.823 91.3572C115.415 91.3572 110.993 95.7789 110.993 101.187V113.916C109.532 114.314 108.073 114.755 106.621 115.269V149.75C120.433 152.471 134.282 154.637 148.602 149.75V115.269C147.141 114.813 145.683 114.413 144.229 114.044V101.187C144.229 95.7789 139.807 91.3572 134.4 91.3572H120.823ZM120.823 95.7721H134.398C137.436 95.7721 139.812 98.1481 139.812 101.186V113.057C131.56 111.469 123.421 111.348 115.408 112.892V101.186C115.408 98.1481 117.786 95.7721 120.823 95.7721ZM127.61 123.052C130.029 123.053 131.989 125.014 131.989 127.433C131.986 129.119 131.014 130.654 129.491 131.38V137.727H125.73V131.38C124.206 130.655 123.233 129.12 123.23 127.433C123.23 125.014 125.191 123.053 127.61 123.052Z" fill="#A0EFEA"/>
<path d="M469.07 202.097C469.07 255.284 425.953 298.402 372.766 298.402C319.578 298.402 276.461 255.284 276.461 202.097C276.461 148.908 319.578 105.792 372.766 105.792C425.953 105.792 469.07 148.908 469.07 202.097Z" fill="#F1FFFF" stroke="#35BFBF" stroke-width="0.866315" stroke-miterlimit="2.5989" stroke-linecap="round" stroke-linejoin="round"/>
<path d="M424.978 202.097C424.978 255.374 401.602 298.564 372.767 298.564C343.93 298.564 320.555 255.374 320.555 202.097C320.555 148.819 343.93 105.629 372.767 105.629C401.603 105.629 424.978 148.819 424.978 202.097Z" fill="#F1FFFF" stroke="#35BFBF" stroke-width="0.866315" stroke-miterlimit="2.5989" stroke-linecap="round" stroke-linejoin="round"/>
<path d="M372.766 105.792V298.564" stroke="#35BFBF" stroke-width="0.866315" stroke-miterlimit="2.5989" stroke-linecap="round" stroke-linejoin="round"/>
<path d="M276.379 202.178H469.151" stroke="#35BFBF" stroke-width="0.866315" stroke-miterlimit="2.5989" stroke-linecap="round" stroke-linejoin="round"/>
<path d="M372.764 105.792C344.611 105.82 317.881 118.165 299.605 139.578C317.847 151.21 344.575 157.942 372.764 158.004C400.971 157.996 427.758 151.306 446.074 139.696C427.786 118.198 400.988 105.805 372.764 105.792ZM372.764 246.19C344.575 246.252 317.847 252.984 299.605 264.616C317.881 286.03 344.611 298.375 372.764 298.402C400.988 298.389 427.786 285.996 446.074 264.497C427.758 252.888 400.97 246.198 372.764 246.19Z" stroke="#35BFBF" stroke-width="0.866315" stroke-miterlimit="2.5989" stroke-linecap="round" stroke-linejoin="round"/>
<path d="M287.216 99.6478C293.952 101.288 303.968 88.3095 296.654 83.8691C301.831 74.9075 291.628 60.3034 281.672 65.5433C281.271 63.6961 280.955 61.8241 280.253 60.057C278.927 56.7186 275.584 53.0166 272.248 51.6035C267.766 49.705 252.34 51.4944 253.531 58.4357C249.144 55.7036 242.793 53.2636 237.723 56.2792C232.799 59.2086 230.844 67.5449 233.699 72.2166C224.227 74.0456 216.151 89.5327 226.33 95.5368C223.706 99.4882 226.851 104.541 229.168 108.029C240.338 124.844 263.516 117.881 277.431 108.347C278.736 107.453 280.554 106.27 281.556 105.047C282.774 103.561 285.121 98.3296 287.216 99.6478Z" fill="#0B0B0B"/>
<path d="M289.841 95.6671C289.841 95.6671 281.59 120.635 270.08 133.085C263.472 140.233 255.875 140.379 249.964 137.934C244.054 135.49 244.134 132.81 238.629 143.086C230.212 140.278 223.61 131.954 223.61 131.954C223.61 131.954 230.657 128.078 231.257 124.547C231.856 121.016 228.548 114.316 231.119 106.923C222.969 106.227 222.31 96.4697 227.12 87.3278C231.93 78.1862 243.484 80.9637 241.227 91.6665C240.39 96.222 238.246 100.367 238.246 100.367C238.246 100.367 240.775 107.421 242.305 104.468C243.468 102.219 243.463 90.0412 244.767 88.7137C246.795 86.6491 247.521 89.1908 250.875 90.5494C257.078 93.0623 262.606 79.0136 262.606 79.0136C262.606 79.0136 276.3 91.6757 289.841 95.6671Z" fill="#FCA697"/>
<path d="M232.313 86.802C232.313 86.802 235.86 85.463 236.884 89.2068C237.908 92.9506 234.335 100.706 230.938 101.162" stroke="#DD6858" stroke-width="1.00449" stroke-miterlimit="2.1977" stroke-linecap="round" stroke-linejoin="round"/>
<path d="M273.527 107.716C273.527 107.716 273.825 119.36 270.641 121.138C267.458 122.917 264.84 119.024 264.84 119.024" stroke="#DD6858" stroke-width="1.00449" stroke-miterlimit="2.1977" stroke-linecap="round" stroke-linejoin="round"/>
<path d="M273.779 93.2516C273.394 91.6513 272.18 90.1302 268.563 89.6717C264.945 89.2138 263.077 90.9944 264.377 92.3737C265.676 93.7541 272.896 96.6091 273.779 93.2516Z" fill="#0B0B0B"/>
<path d="M280.693 96.7941C282.004 96.3302 283.501 96.5226 284.914 99.0136C286.327 101.505 285.548 103.74 284.131 103.416C282.714 103.092 278.443 99.0338 280.693 96.7941Z" fill="#0B0B0B"/>
<path d="M266.991 100.21C266.129 99.6826 264.848 100.208 264.129 101.383C263.411 102.558 263.527 103.938 264.389 104.464C265.251 104.991 266.532 104.466 267.25 103.291C267.968 102.116 267.852 100.736 266.991 100.21Z" fill="#0B0B0B"/>
<path d="M279.221 107.298C278.359 106.771 277.078 107.297 276.36 108.472C275.641 109.647 275.758 111.026 276.619 111.553C277.481 112.08 278.762 111.554 279.48 110.38C280.199 109.205 280.083 107.825 279.221 107.298Z" fill="#0B0B0B"/>
<path d="M262.641 125.808C262.641 125.808 257.771 121.661 256.511 118.942C255.251 116.223 253.642 117.578 253.563 120.257C253.484 122.937 256.588 126.784 258.18 127.367C259.772 127.951 263.595 127.755 262.641 125.808Z" fill="white"/>
<path d="M236.272 93.275C236.272 93.275 233.67 90.9951 230.704 93.5914" stroke="#DD6858" stroke-width="1.00449" stroke-miterlimit="2.1977" stroke-linecap="round" stroke-linejoin="round"/>
<path d="M232.93 121.274C232.93 121.274 234.835 127.399 240.981 132.673C242.492 133.969 244.212 135.084 245.948 136.031C244.363 135.372 243.325 135.568 241.641 137.966C239.988 136.479 238.071 134.649 236.485 132.817C232.93 128.714 232.93 121.274 232.93 121.274Z" fill="#FFA88D"/>
<path d="M241.326 100.951C245.804 103.262 249.185 97.2696 247.203 93.6551C254.059 96.668 262.084 89.1606 263.011 83.2323C264.832 86.9822 267.407 88.4836 271.305 87.1841C274.648 92.5187 279.169 95.4905 285.318 94.9135C286.685 99.9479 292.382 98.6071 293.062 93.7407C293.285 92.1429 292.182 89.4504 291.615 88.0227C289.01 81.471 281.309 75.9627 274.938 73.6049C268.002 71.0382 257.328 69.517 251.328 75.0812C250.043 76.2726 249.692 78.1051 248.65 79.4678C246.301 82.5391 244.205 84.9904 243.221 88.848C242.621 91.2025 242.988 93.7052 242.599 96.1006C242.325 97.8001 241.443 99.2067 241.326 100.951Z" fill="#0B0B0B"/>
<path d="M230.272 131.229L222.788 124.85L217.882 128.949C217.882 128.949 195.681 121.165 187.827 122.455C179.974 123.745 157.382 144.932 148.999 167.708C140.615 190.484 122.66 243.125 122.798 249.135C122.936 255.146 127.173 258.6 127.173 258.6L123.466 268.088C123.466 268.088 192.671 297.174 222.956 289.735C220.699 283.886 221.413 282.574 221.413 282.574C221.413 282.574 232.329 278.682 235.646 274.122C238.962 269.562 263.197 175.629 264.579 168.489C265.961 161.35 264.343 155.267 256.738 151.075C251.6 148.244 245.164 144.308 245.164 144.308L247.145 141.568L230.272 131.229Z" fill="#35BFBF"/>
<path d="M115.599 224.293H379.187C388.831 224.293 396.651 231.673 396.655 240.777L396.73 413.407C396.734 422.51 388.92 429.891 379.276 429.891H115.687C106.044 429.891 98.2234 422.511 98.2195 413.407L98.1445 240.777C98.1406 231.673 105.955 224.293 115.599 224.293Z" fill="#17868A"/>
<path d="M125.104 224.293H388.692C398.336 224.293 406.156 231.673 406.16 240.777L406.235 413.407C406.239 422.51 398.425 429.891 388.781 429.891H125.191C115.548 429.891 107.727 422.511 107.723 413.407L107.648 240.777C107.646 231.673 115.461 224.293 125.104 224.293Z" fill="#20A9AC"/>
<path d="M116.649 241.509C116.647 236.81 120.16 233.295 124.859 233.295H388.939C393.638 233.295 397.155 236.81 397.157 241.509L397.231 412.676C397.233 417.375 393.719 420.89 389.021 420.89H124.941C120.242 420.89 116.725 417.375 116.723 412.676L116.649 241.509C116.649 241.509 116.649 241.509 116.649 241.509Z" fill="#F1FCFA" stroke="#0B0B0B" stroke-width="0.985946"/>
<path d="M106.93 266.358V412.064C106.93 421.91 114.911 429.892 124.758 429.892H203.616" stroke="#0B0B0B" stroke-width="0.985946" stroke-miterlimit="10" stroke-linecap="round"/>
<path d="M116.465 375.333V413.067C116.465 417.503 120.062 421.1 124.498 421.1H343.368" stroke="#556884" stroke-width="0.985946" stroke-miterlimit="10" stroke-linecap="round"/>
<path d="M248.514 306.628C241.8 306.628 236.308 312.118 236.308 318.833V334.638C234.492 335.132 232.682 335.681 230.879 336.318V379.132C248.029 382.51 265.224 385.2 283.005 379.132V336.317C281.19 335.752 279.381 335.255 277.574 334.797V318.832C277.574 312.117 272.084 306.627 265.37 306.627L248.514 306.628ZM248.514 312.11H265.37C269.141 312.11 272.092 315.06 272.092 318.832V333.572C261.846 331.6 251.74 331.449 241.79 333.367V318.832C241.79 315.06 244.742 312.11 248.514 312.11ZM256.942 345.983C259.946 345.984 262.379 348.418 262.379 351.421C262.375 353.515 261.169 355.422 259.278 356.321V364.203H254.609V356.321C252.716 355.422 251.508 353.516 251.504 351.421C251.504 348.418 253.938 345.983 256.941 345.983C256.941 345.983 256.941 345.983 256.942 345.983Z" fill="#35BFBF"/>
<path d="M207.521 288.18H103.023V317.089H207.521V288.18Z" fill="#175458"/>
<path d="M207.521 324.879H103.023V353.788H207.521V324.879Z" fill="#175458"/>
<path d="M416.896 191.845H320.566V324.119H416.896V191.845Z" fill="#CFF8F4"/>
<path d="M403.726 203.221H333.742V208.38H403.726V203.221Z" fill="#35BFBF"/>
<path d="M408.157 226.936H329.305V229.619H408.157V226.936Z" fill="#35BFBF"/>
<path d="M408.157 233.898H329.305V236.581H408.157V233.898Z" fill="#35BFBF"/>
<path d="M408.157 240.862H329.305V243.545H408.157V240.862Z" fill="#35BFBF"/>
<path d="M408.157 247.825H329.305V250.508H408.157V247.825Z" fill="#35BFBF"/>
<path d="M408.157 254.789H329.305V257.472H408.157V254.789Z" fill="#35BFBF"/>
<path d="M117.138 448.442H422.638C427.834 448.442 432.046 444.289 432.046 439.166C432.046 434.043 427.834 429.891 422.638 429.891H117.138C111.942 429.891 107.73 434.043 107.73 439.166C107.73 444.289 111.942 448.442 117.138 448.442Z" fill="#68E0DC"/>
<path d="M216.802 448.442H442.499C445.825 448.442 448.52 444.289 448.52 439.166C448.52 434.043 445.825 429.891 442.499 429.891H216.802C213.477 429.891 210.781 434.043 210.781 439.166C210.781 444.289 213.477 448.442 216.802 448.442Z" fill="#35BFBF"/>
<path d="M146.521 436.156H125.793V441.352H146.521V436.156Z" fill="#175458"/>
<path d="M174.786 436.156H154.059V441.352H174.786V436.156Z" fill="#175458"/>
<path d="M299.379 241.517C299.379 241.517 297.306 249.973 296.015 250.525C294.724 251.077 290.382 255.222 288.018 258.118C285.655 261.015 278.744 266.336 279.918 269.568C281.093 272.8 285.42 270.873 289.107 266.106C285.321 275.405 281.438 288.469 283.807 290.183C286.176 291.895 291.193 280.317 292.872 277.604C294.551 274.892 287.617 291.82 288.977 294.344C290.337 296.868 294.667 290.953 299.005 280.385C300.94 277.768 295.23 291.929 297.508 293.367C299.785 294.804 303.291 284.618 304.684 281.278C306.077 277.937 303.403 288.64 304.287 290.4C305.171 292.159 307.539 291.311 309.409 287.056C311.278 282.801 316.007 268.51 315.828 264.259C315.65 260.009 314.477 257.37 314.477 257.37L317.054 246.482L299.379 241.517Z" fill="#FCA697"/>
<path d="M290.793 282.791L294.221 272.959" stroke="#DD6858" stroke-width="1.50603" stroke-miterlimit="2.1977" stroke-linecap="round" stroke-linejoin="round"/>
<path d="M298.168 285.426L299.678 276.326" stroke="#DD6858" stroke-width="1.50603" stroke-miterlimit="2.1977" stroke-linecap="round" stroke-linejoin="round"/>
<path d="M303.84 285.426L305.69 276.326" stroke="#DD6858" stroke-width="1.50603" stroke-miterlimit="2.1977" stroke-linecap="round" stroke-linejoin="round"/>
<path d="M292.871 271.562C296.696 276.968 308.74 276.3 308.74 276.3" stroke="#DD6858" stroke-width="1.50603" stroke-miterlimit="2.1977" stroke-linecap="round" stroke-linejoin="round"/>
<path d="M249.589 148.124C249.589 148.124 265.261 156.72 276.216 162.654C287.171 168.587 314.824 177.755 325.209 185.438C335.593 193.122 333.007 220.204 331.6 231.197C330.193 242.189 320.607 246.259 320.607 246.259L317.906 253.372L294.703 249.263L296.644 242.798C296.644 242.798 286.335 240.515 285.232 236.332C284.129 232.147 275.695 210.856 275.695 210.856L244.926 197.13L249.589 148.124Z" fill="#35BFBF"/>
<path d="M192.663 243.99C192.663 243.99 200.558 247.662 201.796 247.002C203.034 246.34 208.985 245.546 212.722 245.514C216.461 245.482 224.935 243.422 226.722 246.359C228.508 249.297 224.298 251.467 218.272 251.361C227.894 254.226 240.516 259.371 240.37 262.291C240.224 265.21 228.052 261.879 224.886 261.492C221.719 261.106 239.262 266.287 240.381 268.927C241.5 271.566 234.175 271.244 223.218 268.016C219.967 267.888 234.586 272.294 234.282 274.97C233.978 277.646 223.839 274.008 220.361 273.005C216.884 272.002 226.906 276.611 227.725 278.402C228.545 280.192 226.402 281.509 221.912 280.305C217.423 279.101 203.316 273.848 200.112 271.049C196.908 268.25 195.583 265.683 195.583 265.683L185.477 260.882L192.663 243.99Z" fill="#FCA697"/>
<path d="M224.919 274.85L217.145 271.688" stroke="#DD6858" stroke-width="1.50603" stroke-miterlimit="2.1977" stroke-linecap="round" stroke-linejoin="round"/>
<path d="M228.209 270.693L220.926 266.509" stroke="#DD6858" stroke-width="1.50603" stroke-miterlimit="2.1977" stroke-linecap="round" stroke-linejoin="round"/>
<path d="M231.226 263.322L221.391 260.515" stroke="#DD6858" stroke-width="1.50603" stroke-miterlimit="2.1977" stroke-linecap="round" stroke-linejoin="round"/>
<path d="M215.648 272.927C221.335 269.531 221.598 257.472 221.598 257.472" stroke="#DD6858" stroke-width="1.50603" stroke-miterlimit="2.1977" stroke-linecap="round" stroke-linejoin="round"/>
<path d="M185.611 122.806C169.834 121.111 156.828 137.703 149.331 148.752C141.834 159.802 108.879 200.188 108.325 218.474C107.771 236.76 160.838 263.717 168.954 265.901C177.071 268.085 181.862 261.729 181.862 261.729L190.565 265.021L202.744 244.594L195.041 242.69C195.041 242.69 197.933 243.084 196.369 234.675C194.804 226.265 158.849 204.035 158.849 204.035C158.849 204.035 200.181 146.307 185.611 122.806Z" fill="#35BFBF"/>
<path d="M277.719 210.448C277.719 210.448 283.017 194.336 298.134 196.65" stroke="#17868A" stroke-width="0.985946" stroke-miterlimit="2.2259" stroke-linecap="round" stroke-linejoin="bevel"/>
<path d="M258.705 162.658C258.705 162.658 256.634 187.349 249.883 195.955" stroke="#17868A" stroke-width="0.985946" stroke-miterlimit="2.2259" stroke-linecap="round" stroke-linejoin="bevel"/>
<path d="M191.46 132.157C191.46 132.157 197.915 145.095 194.445 154.509C190.976 163.923 164.805 195.364 164.805 195.364" stroke="#17868A" stroke-width="0.985946" stroke-miterlimit="2.2259" stroke-linecap="round" stroke-linejoin="bevel"/>
<path d="M157.788 204.697C157.788 204.697 138.288 199.291 127.609 210.856" stroke="#17868A" stroke-width="0.985946" stroke-miterlimit="2.2259" stroke-linecap="round" stroke-linejoin="bevel"/>
<path d="M191.675 246.037L182.719 259.162" stroke="#17868A" stroke-width="0.985946" stroke-miterlimit="2.2259" stroke-linecap="round" stroke-linejoin="bevel"/>
<path d="M299.211 242.164L318.119 246.467" stroke="#17868A" stroke-width="0.985946" stroke-miterlimit="2.2259" stroke-linecap="round" stroke-linejoin="bevel"/>
<path d="M228.969 177.512C228.969 177.512 239.882 187.063 246.243 187.16" stroke="#17868A" stroke-width="0.963118" stroke-miterlimit="2.2259" stroke-linecap="round" stroke-linejoin="bevel"/>
<path d="M407.011 122.765L403.613 126.46L433.056 153.535L436.454 149.84L407.011 122.765Z" fill="#8BB0CC"/>
<path d="M426.066 140.91L423.286 143.934C422.538 144.748 422.591 146.013 423.405 146.761L448.259 169.614C449.073 170.363 450.338 170.31 451.087 169.496L453.866 166.473C454.614 165.659 454.561 164.393 453.748 163.645L428.893 140.792C428.08 140.044 426.814 140.097 426.066 140.91Z" fill="#A4BFD8"/>
<path d="M425.841 141.154L423.51 143.689C422.638 144.638 422.7 146.113 423.649 146.986L448.015 169.39C448.964 170.262 450.439 170.2 451.312 169.251" stroke="#556884" stroke-width="0.963118" stroke-miterlimit="10" stroke-linecap="round"/>
<path d="M412.868 84.3676C426.992 97.3553 427.915 119.334 414.927 133.458C401.939 147.583 379.961 148.505 365.837 135.517C351.712 122.529 350.79 100.551 363.778 86.4268C376.764 72.3027 398.743 71.381 412.868 84.3676Z" fill="#A4BFD8"/>
<path d="M415.267 112.017C416.418 97.6974 405.742 85.1559 391.423 84.0052C377.103 82.8546 364.562 93.5304 363.412 107.85C362.261 122.17 372.936 134.712 387.256 135.863C401.575 137.013 414.116 126.337 415.267 112.017Z" fill="#D2DFEE"/>
<path d="M409.232 128.223C399.137 139.203 382.051 139.92 371.071 129.824C360.092 119.729 359.374 102.643 369.471 91.6633" stroke="#556884" stroke-width="0.963118" stroke-miterlimit="10" stroke-linecap="round"/>
<path d="M406.451 37.4128H319.113V67.3225H406.451V37.4128Z" fill="#35BFBF"/>
<path d="M341.891 59.425L335.038 43.5396H339.009L345 57.6096H342.663L348.745 43.5396H352.398L345.522 59.425H341.891ZM353.725 59.425V43.5396H360.601C362.023 43.5396 363.249 43.7741 364.277 44.2431C365.306 44.697 366.1 45.3551 366.66 46.2174C367.22 47.0798 367.5 48.1085 367.5 49.3037C367.5 50.4838 367.22 51.505 366.66 52.3674C366.1 53.2297 365.306 53.8954 364.277 54.3644C363.249 54.8183 362.023 55.0452 360.601 55.0452H355.767L357.401 53.3886V59.425H353.725ZM357.401 53.7971L355.767 52.0497H360.397C361.531 52.0497 362.379 51.8076 362.938 51.3235C363.498 50.8393 363.778 50.1661 363.778 49.3037C363.778 48.4263 363.498 47.7455 362.938 47.2613C362.379 46.7772 361.531 46.5351 360.397 46.5351H355.767L357.401 44.7877V53.7971ZM370.124 59.425V43.5396H373.165L382.538 54.9771H381.063V43.5396H384.694V59.425H381.675L372.28 47.9875H373.755V59.425H370.124Z" fill="white"/>
</g>
<defs>
<clipPath id="clip0_1278_5602">
<rect width="500" height="500" fill="white"/>
</clipPath>
</defs>
</svg>
